<svg width="965" height="715" viewBox="0 0 965 715" fill="none" xmlns="http://www.w3.org/2000/svg">
<path d="M718.974 167.771C786.623 208.375 883.263 197.848 928.822 235.443C974.381 273.039 971.62 358.757 949.531 430.941C927.442 503.124 888.785 560.27 848.749 611.4C810.092 662.53 771.436 704.637 724.497 713.66C678.937 721.179 625.095 695.614 583.677 673.056C542.26 650.499 511.887 630.949 455.284 629.446C397.299 627.942 313.084 644.484 231.63 615.911C150.176 588.842 71.4825 516.659 30.0652 418.91C-11.3522 321.161 -14.1134 197.848 48.0127 133.183C110.139 70.0227 239.913 65.5112 337.934 44.4577C435.955 21.9003 503.604 -17.1992 557.446 8.36587C611.289 35.4347 651.326 127.168 718.974 167.771Z" fill="url(#paint0_linear_165_1985)"/>
<defs>
<linearGradient id="paint0_linear_165_1985" x1="0" y1="715" x2="684.02" y2="-208.187" gradientUnits="userSpaceOnUse">
<stop stop-color="#2B7DC0"/>
<stop offset="1" stop-color="#569FDB"/>
</linearGradient>
</defs>
</svg>
