<svg width="472" height="472" viewBox="0 0 472 472" fill="none" xmlns="http://www.w3.org/2000/svg">
<circle cx="235.625" cy="235.625" r="235.625" fill="#1A7AC1"/>
<g clip-path="url(#clip0_171_2009)">
<path d="M264.521 269.161C286.144 269.161 303.673 251.655 303.673 230.06C303.673 208.465 286.144 190.958 264.521 190.958C242.898 190.958 225.369 208.465 225.369 230.06C225.369 251.655 242.898 269.161 264.521 269.161Z" fill="#1D7ABE"/>
<path d="M152.617 154.819C152.617 152.532 150.754 150.672 148.464 150.672C146.174 150.672 144.312 152.532 144.312 154.819V215.545C142.52 213.519 140.444 211.694 138.107 210.106C120.346 198.091 101.209 205.686 92.2391 218.922C82.0239 233.982 85.9866 254.54 101.066 264.73C106.725 268.557 113.168 270.393 119.539 270.393C130.134 270.393 140.563 265.322 146.934 255.914C150.659 250.416 152.486 244.195 152.593 238.01C152.593 237.927 152.617 237.844 152.617 237.761V154.819ZM140.052 251.269C132.412 262.549 117 265.5 105.717 257.869C100.248 254.172 96.5459 248.568 95.3001 242.086C94.0544 235.605 95.4069 229.029 99.1086 223.578C103.475 217.132 111.056 212.476 119.48 212.476C124.012 212.476 128.793 213.827 133.444 216.978C144.739 224.609 147.693 240.001 140.052 251.269Z" fill="#98C5E2"/>
<path d="M190.239 269.303C183.701 269.303 177.318 267.36 171.79 263.616C156.71 253.414 152.747 232.868 162.963 217.808C167.91 210.509 175.408 205.58 184.069 203.909C192.73 202.25 201.533 204.051 208.83 208.992C216.127 213.933 221.074 221.422 222.747 230.072C224.42 238.721 222.604 247.513 217.657 254.8C212.71 262.099 205.211 267.028 196.55 268.699C194.45 269.102 192.339 269.303 190.239 269.303ZM169.832 222.453C162.191 233.733 165.146 249.113 176.44 256.743C181.91 260.44 188.495 261.791 194.972 260.547C201.462 259.303 207.074 255.606 210.776 250.144C214.477 244.681 215.83 238.105 214.584 231.636C213.338 225.154 209.637 219.55 204.167 215.853C198.698 212.156 192.113 210.805 185.635 212.049C179.145 213.293 173.534 216.99 169.832 222.453Z" fill="#98C5E2"/>
<path d="M329.68 266.851C323.143 266.851 316.76 264.907 311.231 261.163C296.151 250.961 292.189 230.415 302.404 215.355C312.619 200.295 333.192 196.338 348.271 206.54C355.58 211.481 360.515 218.969 362.188 227.619C363.861 236.269 362.046 245.06 357.098 252.348C352.151 259.646 344.653 264.576 335.992 266.246C333.892 266.649 331.78 266.851 329.68 266.851ZM309.273 220C301.633 231.28 304.587 246.66 315.882 254.291C321.351 257.988 327.936 259.338 334.414 258.094C340.904 256.85 346.515 253.153 350.217 247.691C353.919 242.229 355.271 235.652 354.026 229.183C352.78 222.702 349.078 217.097 343.609 213.4C332.326 205.769 316.914 208.72 309.273 220Z" fill="#98C5E2"/>
<path d="M293.268 233.721C293.043 223.389 287.989 213.305 278.782 207.073C263.702 196.871 243.118 200.828 232.914 215.888C227.967 223.187 226.164 231.967 227.825 240.617C229.498 249.267 234.433 256.755 241.742 261.696C247.27 265.441 253.653 267.384 260.191 267.384C262.291 267.384 264.402 267.182 266.502 266.78C273.941 265.346 280.526 261.495 285.367 255.819V317.564C285.367 319.768 287.158 321.569 289.377 321.569C291.595 321.569 293.387 319.78 293.387 317.564V234.622C293.387 234.313 293.34 234.005 293.28 233.721H293.268ZM280.74 248.236C277.038 253.698 271.426 257.395 264.936 258.639C258.458 259.883 251.862 258.533 246.404 254.836C240.947 251.139 237.233 245.534 235.987 239.053C234.742 232.572 236.094 225.996 239.796 220.545C247.448 209.265 262.848 206.314 274.131 213.945C285.426 221.576 288.38 236.968 280.74 248.236Z" fill="#98C5E2"/>
<path d="M283.418 225.168L245.947 252.066L246.453 239.846L283.418 225.168Z" fill="url(#paint0_linear_171_2009)"/>
<path d="M244.982 253.864L245.588 239.187L289.968 221.572L244.982 253.864ZM247.306 240.479L246.898 250.255L276.868 228.752L247.306 240.491V240.479Z" fill="url(#paint1_linear_171_2009)"/>
<path d="M261.939 248.9L245.86 239.2L298.928 217.026L261.939 248.9ZM249.543 239.478L261.778 246.861L294.59 219.635L249.555 239.491L249.543 239.478Z" fill="url(#paint2_linear_171_2009)"/>
<path d="M296.371 218.09L262.706 247.786L249.136 239.136L296.371 218.09Z" fill="url(#paint3_linear_171_2009)"/>
<path d="M295.442 217.672L245.612 236.629L227.803 227.195L295.442 217.672Z" fill="url(#paint4_linear_171_2009)"/>
<path d="M244.043 237.566L225.369 227.461L296.271 217.355L244.043 237.566ZM230.3 226.916L246.502 235.844L291.809 217.988L230.3 226.916Z" fill="url(#paint5_linear_171_2009)"/>
</g>
<defs>
<linearGradient id="paint0_linear_171_2009" x1="245.947" y1="238.617" x2="267.896" y2="238.617" gradientUnits="userSpaceOnUse">
<stop stop-color="white"/>
<stop offset="0.32" stop-color="#DDA30D"/>
</linearGradient>
<linearGradient id="paint1_linear_171_2009" x1="244.982" y1="237.731" x2="289.968" y2="237.731" gradientUnits="userSpaceOnUse">
<stop stop-color="white"/>
<stop offset="0.5" stop-color="#DDA30D"/>
</linearGradient>
<linearGradient id="paint2_linear_171_2009" x1="258.861" y1="216.735" x2="300.681" y2="250.23" gradientUnits="userSpaceOnUse">
<stop stop-color="white"/>
<stop offset="0.07" stop-color="#F9EFD7"/>
<stop offset="0.18" stop-color="#F1DBA2"/>
<stop offset="0.28" stop-color="#EBCA74"/>
<stop offset="0.39" stop-color="#E6BC4F"/>
<stop offset="0.5" stop-color="#E2B132"/>
<stop offset="0.6" stop-color="#DFA91D"/>
<stop offset="0.71" stop-color="#DDA411"/>
<stop offset="0.81" stop-color="#DDA30D"/>
</linearGradient>
<linearGradient id="paint3_linear_171_2009" x1="227.941" y1="232.931" x2="301.574" y2="232.931" gradientUnits="userSpaceOnUse">
<stop stop-color="white"/>
<stop offset="0.02" stop-color="#FDFBF6"/>
<stop offset="0.17" stop-color="#F5E4B9"/>
<stop offset="0.32" stop-color="#EDD084"/>
<stop offset="0.47" stop-color="#E7C059"/>
<stop offset="0.61" stop-color="#E3B338"/>
<stop offset="0.75" stop-color="#DFAA20"/>
<stop offset="0.87" stop-color="#DDA411"/>
<stop offset="0.98" stop-color="#DDA30D"/>
</linearGradient>
<linearGradient id="paint4_linear_171_2009" x1="225.354" y1="243.812" x2="287.279" y2="207.362" gradientUnits="userSpaceOnUse">
<stop stop-color="white"/>
<stop offset="0.64" stop-color="#DDA30D"/>
</linearGradient>
<linearGradient id="paint5_linear_171_2009" x1="253.571" y1="204.578" x2="281.742" y2="270.574" gradientUnits="userSpaceOnUse">
<stop stop-color="white"/>
<stop offset="0.09" stop-color="#FBF5E6"/>
<stop offset="0.42" stop-color="#EED28A"/>
<stop offset="0.7" stop-color="#E5B946"/>
<stop offset="0.9" stop-color="#DFA91D"/>
<stop offset="1" stop-color="#DDA30D"/>
</linearGradient>
<clipPath id="clip0_171_2009">
<rect width="299.207" height="170.897" fill="white" transform="translate(86.5562 150.672)"/>
</clipPath>
</defs>
</svg>
